<mxfile host="app.diagrams.net" modified="2020-11-25T11:39:31.264Z" agent="5.0 (Windows NT 10.0; Win64; x64) AppleWebKit/537.36 (KHTML, like Gecko) Chrome/86.0.4240.183 Safari/537.36 OPR/72.0.3815.320" etag="2cosBko3kBlJQEDoc-b2" version="13.9.8" type="github" pages="2">
  <diagram id="V-8oEwVoHZ0H7SLC0gua" name="Page-1">
    <mxGraphModel dx="2295" dy="886" grid="1" gridSize="10" guides="1" tooltips="1" connect="1" arrows="1" fold="1" page="1" pageScale="1" pageWidth="827" pageHeight="1169" math="0" shadow="0">
      <root>
        <mxCell id="0" />
        <mxCell id="1" parent="0" />
        <mxCell id="Gfo-pKyB4tP-FyRo3jSm-1" value="Исключения" style="swimlane;whiteSpace=wrap" vertex="1" parent="1">
          <mxGeometry x="540" y="140" width="280" height="742" as="geometry" />
        </mxCell>
        <mxCell id="Gfo-pKyB4tP-FyRo3jSm-2" value="Выбирает марку" style="" vertex="1" parent="Gfo-pKyB4tP-FyRo3jSm-1">
          <mxGeometry x="110" y="530" width="110" height="50" as="geometry" />
        </mxCell>
        <mxCell id="Gfo-pKyB4tP-FyRo3jSm-3" value="Нормальное направление" style="swimlane;whiteSpace=wrap" vertex="1" parent="Gfo-pKyB4tP-FyRo3jSm-1">
          <mxGeometry x="-375.5" width="375.5" height="742" as="geometry" />
        </mxCell>
        <mxCell id="Gfo-pKyB4tP-FyRo3jSm-4" value="" style="ellipse;shape=startState;fillColor=#000000;strokeColor=#ff0000;" vertex="1" parent="Gfo-pKyB4tP-FyRo3jSm-3">
          <mxGeometry x="169" y="40" width="30" height="30" as="geometry" />
        </mxCell>
        <mxCell id="Gfo-pKyB4tP-FyRo3jSm-5" value="" style="edgeStyle=elbowEdgeStyle;elbow=horizontal;verticalAlign=bottom;endArrow=open;endSize=8;strokeColor=#FF0000;endFill=1;rounded=0;entryX=0.5;entryY=0;entryDx=0;entryDy=0;" edge="1" parent="Gfo-pKyB4tP-FyRo3jSm-3" source="Gfo-pKyB4tP-FyRo3jSm-4" target="Gfo-pKyB4tP-FyRo3jSm-106">
          <mxGeometry x="100" y="40" as="geometry">
            <mxPoint x="115" y="110" as="targetPoint" />
          </mxGeometry>
        </mxCell>
        <mxCell id="Gfo-pKyB4tP-FyRo3jSm-114" style="edgeStyle=orthogonalEdgeStyle;rounded=0;orthogonalLoop=1;jettySize=auto;html=1;exitX=0.5;exitY=1;exitDx=0;exitDy=0;entryX=0.5;entryY=0;entryDx=0;entryDy=0;strokeColor=#FF0000;" edge="1" parent="Gfo-pKyB4tP-FyRo3jSm-3" source="Gfo-pKyB4tP-FyRo3jSm-6" target="Gfo-pKyB4tP-FyRo3jSm-113">
          <mxGeometry relative="1" as="geometry" />
        </mxCell>
        <mxCell id="Gfo-pKyB4tP-FyRo3jSm-6" value="Вбить марку и &#xa;модель автомобиля" style="" vertex="1" parent="Gfo-pKyB4tP-FyRo3jSm-3">
          <mxGeometry x="132.75" y="190" width="110" height="50" as="geometry" />
        </mxCell>
        <mxCell id="Gfo-pKyB4tP-FyRo3jSm-9" style="edgeStyle=orthogonalEdgeStyle;rounded=0;orthogonalLoop=1;jettySize=auto;html=1;exitX=0.5;exitY=1;exitDx=0;exitDy=0;entryX=0.5;entryY=0;entryDx=0;entryDy=0;labelBackgroundColor=#FF0000;strokeColor=#FF0000;fontColor=#FF0000;" edge="1" parent="Gfo-pKyB4tP-FyRo3jSm-3" source="Gfo-pKyB4tP-FyRo3jSm-10" target="Gfo-pKyB4tP-FyRo3jSm-21">
          <mxGeometry relative="1" as="geometry">
            <mxPoint x="190.375" y="530" as="targetPoint" />
          </mxGeometry>
        </mxCell>
        <mxCell id="Gfo-pKyB4tP-FyRo3jSm-10" value="Оставить заявку" style="" vertex="1" parent="Gfo-pKyB4tP-FyRo3jSm-3">
          <mxGeometry x="139.5" y="550" width="110" height="50" as="geometry" />
        </mxCell>
        <mxCell id="Gfo-pKyB4tP-FyRo3jSm-12" value="Клиент авторизирован" style="text;html=1;strokeColor=none;fillColor=none;align=center;verticalAlign=middle;whiteSpace=wrap;rounded=0;" vertex="1" parent="Gfo-pKyB4tP-FyRo3jSm-3">
          <mxGeometry x="205.5" y="40" width="110" height="20" as="geometry" />
        </mxCell>
        <mxCell id="Gfo-pKyB4tP-FyRo3jSm-15" value="Менеджер авторизирован" style="text;html=1;strokeColor=none;fillColor=none;align=center;verticalAlign=middle;whiteSpace=wrap;rounded=0;" vertex="1" parent="Gfo-pKyB4tP-FyRo3jSm-3">
          <mxGeometry x="45.5" y="20" width="110" height="40" as="geometry" />
        </mxCell>
        <mxCell id="Gfo-pKyB4tP-FyRo3jSm-20" style="edgeStyle=orthogonalEdgeStyle;rounded=0;orthogonalLoop=1;jettySize=auto;html=1;exitX=0.5;exitY=1;exitDx=0;exitDy=0;entryX=0.5;entryY=0;entryDx=0;entryDy=0;labelBackgroundColor=#FF0000;strokeColor=#FF0000;fontColor=#FF0000;" edge="1" parent="Gfo-pKyB4tP-FyRo3jSm-3" source="Gfo-pKyB4tP-FyRo3jSm-21" target="Gfo-pKyB4tP-FyRo3jSm-22">
          <mxGeometry relative="1" as="geometry" />
        </mxCell>
        <mxCell id="Gfo-pKyB4tP-FyRo3jSm-21" value="Уведомить пользователя&#xa;об оставленной записи" style="" vertex="1" parent="Gfo-pKyB4tP-FyRo3jSm-3">
          <mxGeometry x="118.19" y="630" width="146.38" height="60" as="geometry" />
        </mxCell>
        <mxCell id="Gfo-pKyB4tP-FyRo3jSm-22" value="" style="ellipse;shape=endState;fillColor=#000000;strokeColor=#ff0000" vertex="1" parent="Gfo-pKyB4tP-FyRo3jSm-3">
          <mxGeometry x="176.38" y="712" width="30" height="30" as="geometry" />
        </mxCell>
        <mxCell id="Gfo-pKyB4tP-FyRo3jSm-23" value="Клиент&amp;nbsp; закрыл уведомление&amp;nbsp;" style="text;html=1;strokeColor=none;fillColor=none;align=center;verticalAlign=middle;whiteSpace=wrap;rounded=0;" vertex="1" parent="Gfo-pKyB4tP-FyRo3jSm-3">
          <mxGeometry x="211.88" y="710" width="148.12" height="20" as="geometry" />
        </mxCell>
        <mxCell id="Gfo-pKyB4tP-FyRo3jSm-27" value="Поисковая строка&amp;nbsp;" style="text;html=1;strokeColor=none;fillColor=none;align=center;verticalAlign=middle;whiteSpace=wrap;rounded=0;" vertex="1" parent="Gfo-pKyB4tP-FyRo3jSm-3">
          <mxGeometry x="199" y="160" width="71" height="20" as="geometry" />
        </mxCell>
        <mxCell id="Gfo-pKyB4tP-FyRo3jSm-28" value="Авто данной марки есть" style="text;html=1;strokeColor=none;fillColor=none;align=center;verticalAlign=middle;whiteSpace=wrap;rounded=0;" vertex="1" parent="Gfo-pKyB4tP-FyRo3jSm-3">
          <mxGeometry x="66.38" y="330" width="110" height="20" as="geometry" />
        </mxCell>
        <mxCell id="Gfo-pKyB4tP-FyRo3jSm-108" style="edgeStyle=orthogonalEdgeStyle;rounded=0;orthogonalLoop=1;jettySize=auto;html=1;exitX=0.5;exitY=1;exitDx=0;exitDy=0;entryX=0.5;entryY=0;entryDx=0;entryDy=0;strokeColor=#FF0000;" edge="1" parent="Gfo-pKyB4tP-FyRo3jSm-3" source="Gfo-pKyB4tP-FyRo3jSm-106" target="Gfo-pKyB4tP-FyRo3jSm-6">
          <mxGeometry relative="1" as="geometry" />
        </mxCell>
        <mxCell id="Gfo-pKyB4tP-FyRo3jSm-106" value="" style="rhombus;whiteSpace=wrap;html=1;" vertex="1" parent="Gfo-pKyB4tP-FyRo3jSm-3">
          <mxGeometry x="132.75" y="100" width="110" height="50" as="geometry" />
        </mxCell>
        <mxCell id="VikEKIZbAs99S6CFadQw-15" style="edgeStyle=orthogonalEdgeStyle;rounded=0;orthogonalLoop=1;jettySize=auto;html=1;exitX=0.5;exitY=1;exitDx=0;exitDy=0;entryX=0.5;entryY=0;entryDx=0;entryDy=0;strokeColor=#FF0000;" edge="1" parent="Gfo-pKyB4tP-FyRo3jSm-3" source="Gfo-pKyB4tP-FyRo3jSm-113" target="VikEKIZbAs99S6CFadQw-14">
          <mxGeometry relative="1" as="geometry" />
        </mxCell>
        <mxCell id="Gfo-pKyB4tP-FyRo3jSm-113" value="" style="rhombus;whiteSpace=wrap;html=1;" vertex="1" parent="Gfo-pKyB4tP-FyRo3jSm-3">
          <mxGeometry x="132.75" y="270" width="117.25" height="50" as="geometry" />
        </mxCell>
        <mxCell id="Gfo-pKyB4tP-FyRo3jSm-118" style="edgeStyle=orthogonalEdgeStyle;rounded=0;orthogonalLoop=1;jettySize=auto;html=1;exitX=0.5;exitY=1;exitDx=0;exitDy=0;entryX=0.5;entryY=0;entryDx=0;entryDy=0;strokeColor=#FF0000;" edge="1" parent="Gfo-pKyB4tP-FyRo3jSm-3" source="Gfo-pKyB4tP-FyRo3jSm-115" target="Gfo-pKyB4tP-FyRo3jSm-10">
          <mxGeometry relative="1" as="geometry" />
        </mxCell>
        <mxCell id="Gfo-pKyB4tP-FyRo3jSm-115" value="" style="rhombus;whiteSpace=wrap;html=1;" vertex="1" parent="Gfo-pKyB4tP-FyRo3jSm-3">
          <mxGeometry x="135.88" y="460" width="117.25" height="50" as="geometry" />
        </mxCell>
        <mxCell id="Gfo-pKyB4tP-FyRo3jSm-119" value="Оставить заявку" style="text;html=1;strokeColor=none;fillColor=none;align=center;verticalAlign=middle;whiteSpace=wrap;rounded=0;" vertex="1" parent="Gfo-pKyB4tP-FyRo3jSm-3">
          <mxGeometry x="206.38" y="520" width="40" height="20" as="geometry" />
        </mxCell>
        <mxCell id="VikEKIZbAs99S6CFadQw-6" value="Авто данной марки не" style="text;html=1;strokeColor=none;fillColor=none;align=center;verticalAlign=middle;whiteSpace=wrap;rounded=0;" vertex="1" parent="Gfo-pKyB4tP-FyRo3jSm-3">
          <mxGeometry x="56.379999999999995" y="270" width="80" height="20" as="geometry" />
        </mxCell>
        <mxCell id="VikEKIZbAs99S6CFadQw-10" value="Не оставлять заявку" style="text;html=1;strokeColor=none;fillColor=none;align=center;verticalAlign=middle;whiteSpace=wrap;rounded=0;" vertex="1" parent="Gfo-pKyB4tP-FyRo3jSm-3">
          <mxGeometry x="51.379999999999995" y="510" width="90" height="20" as="geometry" />
        </mxCell>
        <mxCell id="VikEKIZbAs99S6CFadQw-16" style="edgeStyle=orthogonalEdgeStyle;rounded=0;orthogonalLoop=1;jettySize=auto;html=1;exitX=0.5;exitY=1;exitDx=0;exitDy=0;entryX=0.5;entryY=0;entryDx=0;entryDy=0;strokeColor=#FF0000;" edge="1" parent="Gfo-pKyB4tP-FyRo3jSm-3" source="VikEKIZbAs99S6CFadQw-14" target="Gfo-pKyB4tP-FyRo3jSm-115">
          <mxGeometry relative="1" as="geometry" />
        </mxCell>
        <mxCell id="VikEKIZbAs99S6CFadQw-14" value="" style="rhombus;whiteSpace=wrap;html=1;" vertex="1" parent="Gfo-pKyB4tP-FyRo3jSm-3">
          <mxGeometry x="132.76" y="370" width="117.25" height="50" as="geometry" />
        </mxCell>
        <mxCell id="VikEKIZbAs99S6CFadQw-17" value="Авто данной модели есть" style="text;html=1;strokeColor=none;fillColor=none;align=center;verticalAlign=middle;whiteSpace=wrap;rounded=0;" vertex="1" parent="Gfo-pKyB4tP-FyRo3jSm-3">
          <mxGeometry x="209" y="434.5" width="110" height="20" as="geometry" />
        </mxCell>
        <mxCell id="VikEKIZbAs99S6CFadQw-21" value="Авто данной модели нет" style="text;html=1;strokeColor=none;fillColor=none;align=center;verticalAlign=middle;whiteSpace=wrap;rounded=0;" vertex="1" parent="Gfo-pKyB4tP-FyRo3jSm-3">
          <mxGeometry x="242.75" y="370" width="110" height="20" as="geometry" />
        </mxCell>
        <mxCell id="VikEKIZbAs99S6CFadQw-19" value="" style="rhombus;whiteSpace=wrap;html=1;" vertex="1" parent="Gfo-pKyB4tP-FyRo3jSm-1">
          <mxGeometry x="81.37" y="70" width="117.25" height="50" as="geometry" />
        </mxCell>
        <mxCell id="VikEKIZbAs99S6CFadQw-20" style="edgeStyle=orthogonalEdgeStyle;rounded=0;orthogonalLoop=1;jettySize=auto;html=1;exitX=1;exitY=0.5;exitDx=0;exitDy=0;entryX=0;entryY=0.5;entryDx=0;entryDy=0;strokeColor=#FF0000;" edge="1" parent="Gfo-pKyB4tP-FyRo3jSm-1" source="VikEKIZbAs99S6CFadQw-14" target="VikEKIZbAs99S6CFadQw-19">
          <mxGeometry relative="1" as="geometry" />
        </mxCell>
        <mxCell id="Gfo-pKyB4tP-FyRo3jSm-32" value="Исключения" style="swimlane;whiteSpace=wrap" vertex="1" parent="1">
          <mxGeometry x="-115.5" y="140" width="280" height="740" as="geometry" />
        </mxCell>
        <mxCell id="VikEKIZbAs99S6CFadQw-8" style="edgeStyle=orthogonalEdgeStyle;rounded=0;orthogonalLoop=1;jettySize=auto;html=1;exitX=0.5;exitY=1;exitDx=0;exitDy=0;entryX=0.5;entryY=0;entryDx=0;entryDy=0;strokeColor=#FF0000;" edge="1" parent="Gfo-pKyB4tP-FyRo3jSm-32" source="Gfo-pKyB4tP-FyRo3jSm-34" target="Gfo-pKyB4tP-FyRo3jSm-123">
          <mxGeometry relative="1" as="geometry" />
        </mxCell>
        <mxCell id="Gfo-pKyB4tP-FyRo3jSm-34" value="Уведомление об&#xa;отсутствии авто" style="" vertex="1" parent="Gfo-pKyB4tP-FyRo3jSm-32">
          <mxGeometry x="119.13" y="180" width="110" height="50" as="geometry" />
        </mxCell>
        <mxCell id="Gfo-pKyB4tP-FyRo3jSm-38" value="Продолжить" style="text;html=1;strokeColor=none;fillColor=none;align=center;verticalAlign=middle;whiteSpace=wrap;rounded=0;" vertex="1" parent="Gfo-pKyB4tP-FyRo3jSm-32">
          <mxGeometry x="55.5" y="330" width="40" height="20" as="geometry" />
        </mxCell>
        <mxCell id="Gfo-pKyB4tP-FyRo3jSm-39" value="Выйти" style="text;html=1;strokeColor=none;fillColor=none;align=center;verticalAlign=middle;whiteSpace=wrap;rounded=0;" vertex="1" parent="Gfo-pKyB4tP-FyRo3jSm-32">
          <mxGeometry x="55.5" y="400" width="40" height="20" as="geometry" />
        </mxCell>
        <mxCell id="Gfo-pKyB4tP-FyRo3jSm-123" value="" style="rhombus;whiteSpace=wrap;html=1;" vertex="1" parent="Gfo-pKyB4tP-FyRo3jSm-32">
          <mxGeometry x="115.5" y="340" width="117.25" height="50" as="geometry" />
        </mxCell>
        <mxCell id="Gfo-pKyB4tP-FyRo3jSm-75" value="Альтернативное направление(каталог)" style="swimlane;whiteSpace=wrap" vertex="1" parent="1">
          <mxGeometry x="820" y="140" width="300" height="742" as="geometry" />
        </mxCell>
        <mxCell id="Gfo-pKyB4tP-FyRo3jSm-76" value="Клиент получает&#xa;уведомление об &#xa;оффлайн-оплате" style="" vertex="1" parent="Gfo-pKyB4tP-FyRo3jSm-75">
          <mxGeometry x="85" y="360" width="110" height="50" as="geometry" />
        </mxCell>
        <mxCell id="Gfo-pKyB4tP-FyRo3jSm-110" value="Альтернативное направление(выпадающий с)" style="swimlane;whiteSpace=wrap" vertex="1" parent="1">
          <mxGeometry x="1120" y="140" width="300" height="742" as="geometry" />
        </mxCell>
        <mxCell id="Gfo-pKyB4tP-FyRo3jSm-111" value="Клиент получает&#xa;уведомление об &#xa;оффлайн-оплате" style="" vertex="1" parent="Gfo-pKyB4tP-FyRo3jSm-110">
          <mxGeometry x="85" y="360" width="110" height="50" as="geometry" />
        </mxCell>
        <mxCell id="VikEKIZbAs99S6CFadQw-1" style="edgeStyle=orthogonalEdgeStyle;rounded=0;orthogonalLoop=1;jettySize=auto;html=1;exitX=0;exitY=0.5;exitDx=0;exitDy=0;entryX=0;entryY=0.5;entryDx=0;entryDy=0;strokeColor=#FF0000;" edge="1" parent="1" source="Gfo-pKyB4tP-FyRo3jSm-123" target="Gfo-pKyB4tP-FyRo3jSm-4">
          <mxGeometry relative="1" as="geometry">
            <Array as="points">
              <mxPoint x="-80" y="505" />
              <mxPoint x="-80" y="195" />
            </Array>
          </mxGeometry>
        </mxCell>
        <mxCell id="VikEKIZbAs99S6CFadQw-3" style="edgeStyle=orthogonalEdgeStyle;rounded=0;orthogonalLoop=1;jettySize=auto;html=1;exitX=0.5;exitY=1;exitDx=0;exitDy=0;entryX=0;entryY=0.5;entryDx=0;entryDy=0;strokeColor=#FF0000;" edge="1" parent="1" source="Gfo-pKyB4tP-FyRo3jSm-123" target="Gfo-pKyB4tP-FyRo3jSm-22">
          <mxGeometry relative="1" as="geometry">
            <Array as="points">
              <mxPoint x="-80" y="530" />
              <mxPoint x="-80" y="867" />
            </Array>
          </mxGeometry>
        </mxCell>
        <mxCell id="VikEKIZbAs99S6CFadQw-5" style="edgeStyle=orthogonalEdgeStyle;rounded=0;orthogonalLoop=1;jettySize=auto;html=1;exitX=0;exitY=0.5;exitDx=0;exitDy=0;entryX=1;entryY=0.5;entryDx=0;entryDy=0;strokeColor=#FF0000;" edge="1" parent="1" source="Gfo-pKyB4tP-FyRo3jSm-113" target="Gfo-pKyB4tP-FyRo3jSm-34">
          <mxGeometry relative="1" as="geometry" />
        </mxCell>
        <mxCell id="VikEKIZbAs99S6CFadQw-11" style="edgeStyle=orthogonalEdgeStyle;rounded=0;orthogonalLoop=1;jettySize=auto;html=1;exitX=0;exitY=0.5;exitDx=0;exitDy=0;entryX=1;entryY=0.5;entryDx=0;entryDy=0;strokeColor=#FF0000;" edge="1" parent="1" source="Gfo-pKyB4tP-FyRo3jSm-115" target="Gfo-pKyB4tP-FyRo3jSm-123">
          <mxGeometry relative="1" as="geometry" />
        </mxCell>
      </root>
    </mxGraphModel>
  </diagram>
  <diagram id="XYDgB-IlGjmThCTlxAyx" name="Page-2">
    <mxGraphModel dx="734" dy="443" grid="1" gridSize="10" guides="1" tooltips="1" connect="1" arrows="1" fold="1" page="1" pageScale="1" pageWidth="827" pageHeight="1169" math="0" shadow="0">
      <root>
        <mxCell id="8mZ8vLN_MhBFpE2euq12-0" />
        <mxCell id="8mZ8vLN_MhBFpE2euq12-1" parent="8mZ8vLN_MhBFpE2euq12-0" />
      </root>
    </mxGraphModel>
  </diagram>
</mxfile>
